<?xml version="1.0" standalone="no"?>
<!DOCTYPE svg PUBLIC "-//W3C//DTD SVG 20010904//EN"
 "http://www.w3.org/TR/2001/REC-SVG-20010904/DTD/svg10.dtd">
<svg version="1.0" xmlns="http://www.w3.org/2000/svg"
 width="32.000000pt" height="32.000000pt" viewBox="0 0 32.000000 32.000000"
 preserveAspectRatio="xMidYMid meet">
<metadata>
Created by potrace 1.10, written by Peter Selinger 2001-2011
</metadata>
<g transform="translate(0.000000,32.000000) scale(0.100000,-0.100000)"
fill="#000000" stroke="none">
<path d="M107 244 c-38 -21 -28 -28 20 -15 50 14 59 14 77 -5 27 -27 16 -104
-18 -126 -6 -4 -23 -8 -38 -8 l-26 0 13 57 c16 68 3 95 -19 42 -8 -19 -18 -47
-21 -61 -5 -17 -12 -25 -21 -21 -21 8 -17 -10 6 -30 23 -19 100 -23 131 -7 48
26 64 118 28 164 -16 21 -29 26 -62 26 -23 -1 -55 -8 -70 -16z"/>
</g>
</svg>
